<?xml version="1.0" encoding="utf-8"?>
<!-- Generator: Adobe Illustrator 23.0.3, SVG Export Plug-In . SVG Version: 6.00 Build 0)  -->
<svg version="1.1" id="Layer_1" xmlns="http://www.w3.org/2000/svg" xmlns:xlink="http://www.w3.org/1999/xlink" x="0px" y="0px"
	 viewBox="0 0 296.37 194.73" style="enable-background:new 0 0 296.37 194.73;" xml:space="preserve">
<style type="text/css">
	.st0{fill-rule:evenodd;clip-rule:evenodd;}
</style>
<g>
	<path class="st0" d="M196.78,49.71l-16.13-37.27l-0.86-1.93l-0.7,2.01l-31.14,99.8l-10.62-39.61l-0.23-0.92l-0.93,0.38L82.37,97.21
		L73.19,8.32l-0.25-2.68l-1.3,2.35L26.82,85.87l1.44,0.83L71.8,11.05l4.41,42.73l-0.62-6l1.46-2.09l1.75,16.96l-1.46,2.09l3.49,33.8
		l0.11,1.25l1.07-0.58l35.91-16.71l0.62-2.12l13.4-6.24l-0.62,2.12l-1.83,0.85l6.49-3.02l11.1,41.43l0.67,2.76l0.92-2.73
		l31.33-100.4l15.24,35.23C195.75,50.14,196.26,49.91,196.78,49.71 M253.71,74.4c0.08,0.09,0.16,0.18,0.24,0.26
		C253.87,74.58,253.79,74.5,253.71,74.4z M253.21,73.8c0.15,0.19,0.31,0.39,0.47,0.57C253.52,74.19,253.37,74,253.21,73.8z
		 M252.28,72.46c0.28,0.45,0.58,0.88,0.9,1.29C252.86,73.34,252.56,72.91,252.28,72.46z M252.06,72.11
		c0.07,0.12,0.14,0.23,0.21,0.34C252.2,72.35,252.13,72.23,252.06,72.11z M251.65,71.4c0.13,0.24,0.27,0.48,0.41,0.71
		C251.92,71.88,251.78,71.64,251.65,71.4z M251.27,70.66c0.09,0.19,0.19,0.38,0.29,0.56C251.46,71.03,251.36,70.84,251.27,70.66z
		 M250.84,69.76c0.11,0.24,0.22,0.48,0.33,0.71C251.06,70.23,250.95,70,250.84,69.76z M249.86,67.26c0.2,0.56,0.4,1.11,0.62,1.64
		C250.26,68.37,250.06,67.82,249.86,67.26z M249.88,61.19c-0.36-1.55-0.69-3.14-1.02-4.72c-1.89-9.11-3.67-17.72-11.24-17.87
		c-8.42-0.17-11.46,10.53-14.4,20.87c-2.39,8.43-4.65,16.39-9.41,16.29c-4.9-0.1-7.03-4.23-9.49-9.02c-0.48-0.92-0.89-1.9-1.4-2.83
		l-1.71-3.95c-0.53,0.19-1.04,0.42-1.52,0.69c0.88,2.14,1.03,2.73,3.15,6.85c2.48,4.82,5.04,9.8,10.94,9.92
		c6.04,0.12,8.47-8.44,11.04-17.51c2.77-9.74,5.62-19.81,12.76-19.66c6.24,0.12,7.9,8.1,9.65,16.54c0.43,2.09,0.88,4.23,1.41,6.32
		C249.04,62.48,249.45,61.83,249.88,61.19z M272.02,68.09c-2.65,4.68-4.94,8.72-9.83,8.63c-2.92-0.13-5.12-1.23-6.83-2.98
		c-0.28,0.49-0.57,0.99-0.87,1.49c1.92,1.84,4.38,3.01,7.63,3.16l0.04-0.83l-0.02,0.83c5.89,0.12,8.65-4.76,11.32-9.48
		c2.94-5.2,5.98-10.57,13.26-10.43l0.03-1.67C278.49,56.66,275.05,62.73,272.02,68.09z"/>
	<path class="st0" d="M48.18,48.77l-0.92-1.43l-6.38-10.16l-1.08,1.55l-6.07,8.14L17.02,69.29l8.92,6.65l14.21-19.07l1.77,2.76
		L48.18,48.77z M163.06,63.9c-0.3-0.58-0.62-1.17-0.94-1.77l-17.21-32.61L143,26.01l-0.68-1.25l-4.93-8.95l-2.38,7.87l-1.74,6
		l-0.33,1.13l-19.53,67.2l-3.53-11.75L99.69,91l-0.48-1.61l10.19-4.74L94.8,35.99l-2.97-10.04l-6.93,8.46L61.01,68.75l-11.82-18.4
		l-6.25,10.86l13.2,20.56l4.39,7.01l4.86-6.83l22.06-31.71l20.24,67.45l5.44,17.35l6.13-17.28l0.07-0.02l-0.03-0.1l17.71-60.93
		l1.24-4.28l0.93-3.2l1.52-5.65c0,0,9.19,19.03,13.16,26.75c1.34,2.62,2.82,5.47,4.7,8.02L163.06,63.9z M223.59,58.18
		c-3.75-5.23-9.14-9.74-18.12-9.92c-13.73-0.27-19.48,9.9-23.69,17.33c-3.77,6.66-5.65,9.36-9.2,9.29
		c-2.99-0.06-4.73-2.07-7.29-6.75l-1.83-3.46l0.69,1.31l-4.35,13.93c2.95,3.42,6.85,5.98,12.55,6.09
		c10.54,0.21,15.29-8.19,19.11-14.94c4.15-7.34,7.04-11.82,13.78-11.69c6.76,0.13,9.33,4.51,13.3,12.22l0.22,0.43
		c1.76-3.1,3.09-7.75,4.45-12.55L223.59,58.18z M270.16,49.54c-13.72-0.27-19.48,9.91-23.69,17.33c-3.77,6.66-5.65,9.36-9.2,9.29
		c-3.55-0.07-5.33-2.85-8.83-9.65c-1.06-2.06-2.22-4.32-3.63-6.54c-1.51,5.32-2.97,10.46-5.15,13.77
		c3.39,6.41,7.92,13.36,17.39,13.54c10.54,0.21,15.29-8.19,19.1-14.94c4.15-7.34,7.04-11.82,13.78-11.69
		c3.07,0.06,5.61-2.38,5.67-5.45C275.67,52.14,273.23,49.61,270.16,49.54z"/>
	<path class="st0" d="M39.52,177.29l0.05-24.36l0.11-0.04l15.56,16.43c0.01-5.41,0.03-10.82,0.03-16.23c1.12,0,2.23,0.01,3.35,0.01
		l-0.06,24.6l-0.11,0.04l-15.56-16.66c-0.01,5.42-0.02,10.85-0.04,16.27c-1.12,0-2.23,0-3.35-0.01V177.29z M77.76,162.77l0.02-9.58
		c1.13,0,2.26,0.01,3.4,0.01c-0.01,4.95-0.02,9.9-0.03,14.85c0,0.67-0.06,1.31-0.18,1.92c-0.12,0.61-0.29,1.2-0.52,1.76l0,0
		c-0.24,0.56-0.53,1.1-0.88,1.61c-0.35,0.5-0.75,0.99-1.2,1.44v0.02l-0.02,0.02c-0.5,0.48-1.01,0.89-1.53,1.24
		c-0.52,0.35-1.06,0.63-1.6,0.85c-0.56,0.24-1.15,0.41-1.76,0.52c-0.61,0.12-1.25,0.17-1.91,0.17c-0.67,0-1.32-0.06-1.94-0.18
		c-0.62-0.12-1.21-0.29-1.77-0.52c-0.58-0.24-1.13-0.54-1.64-0.89c-0.52-0.36-1.01-0.77-1.46-1.25c-0.47-0.47-0.88-0.95-1.23-1.47
		c-0.35-0.51-0.64-1.05-0.88-1.61l0,0c-0.23-0.56-0.4-1.15-0.51-1.76c-0.11-0.61-0.17-1.25-0.17-1.92c0.01-4.95,0.03-9.9,0.03-14.85
		c1.13,0,2.25,0.01,3.38,0.01c-0.01,4.94-0.02,9.89-0.03,14.83c0,0.42,0.04,0.82,0.12,1.21c0.08,0.39,0.19,0.78,0.34,1.15
		c0.14,0.36,0.33,0.7,0.56,1.04c0.22,0.33,0.49,0.65,0.8,0.96c0.3,0.31,0.61,0.57,0.95,0.8c0.34,0.23,0.69,0.42,1.07,0.57h0
		c0.36,0.15,0.74,0.27,1.14,0.35c0.39,0.08,0.79,0.12,1.21,0.12c0.4,0,0.8-0.04,1.19-0.11c0.4-0.08,0.79-0.19,1.17-0.35
		c0.38-0.15,0.73-0.34,1.07-0.56c0.34-0.22,0.65-0.48,0.95-0.78l0,0c0.3-0.28,0.56-0.59,0.79-0.92c0.23-0.34,0.43-0.7,0.6-1.09
		c0.15-0.38,0.27-0.76,0.35-1.15c0.08-0.39,0.12-0.8,0.12-1.21L77.76,162.77z M84.44,177.32l0.05-24.31l0.12-0.03l11.67,17.95
		l11.75-17.89l0.12,0.04l-0.05,24.38c-1.12,0-2.23,0-3.35-0.01l0.03-13.52l-8.51,13l-8.45-13.04l-0.03,13.52
		c-1.12,0-2.23,0-3.35-0.01L84.44,177.32z M151.33,177.59h-17.29v-24.53h17.18v0.83h-16.28v10.96h14.78v0.83h-14.78v11.1h16.46v0.83
		H151.33z M171.1,176.13c-1.44,1.12-3.5,1.81-6.03,1.81c-1.85,0-3.59-0.35-5.2-1c-1.66-0.67-3.17-1.66-4.5-2.92l-0.05-0.05
		l0.65-0.65l0.05,0.04c1.25,1.21,2.66,2.16,4.22,2.8c1.51,0.62,3.16,0.95,4.91,0.95c2.23,0,4.07-0.59,5.36-1.58
		c1.33-1.02,2.07-2.46,2.07-4.11v-0.07c0-1.48-0.45-2.61-1.65-3.53c-1.22-0.93-3.2-1.64-6.28-2.26c-3.03-0.61-5.12-1.36-6.45-2.4
		c-1.35-1.04-1.93-2.35-1.93-4.08v-0.07c0-1.75,0.87-3.35,2.33-4.5c1.42-1.11,3.4-1.81,5.68-1.81c1.56,0,3.04,0.26,4.41,0.72
		c1.45,0.49,2.77,1.2,3.92,2.09l0.05,0.04l-0.57,0.73l-0.05-0.04c-1.12-0.85-2.38-1.54-3.75-2.02c-1.28-0.44-2.65-0.69-4.08-0.69
		c-2.05,0-3.76,0.61-4.98,1.56c-1.31,1.02-2.06,2.42-2.06,3.89v0.07c0,1.46,0.46,2.58,1.66,3.48c1.21,0.91,3.17,1.6,6.16,2.21
		c3.18,0.65,5.3,1.45,6.63,2.51c1.33,1.07,1.86,2.39,1.86,4.07v0.07C173.46,173.27,172.62,174.95,171.1,176.13z M185.74,177.59
		h-0.83v-23.71h-8.82v-0.83h18.54v0.83h-8.82v23.71H185.74z M200.14,177.59h-0.83v-24.53h0.9v24.53H200.14z M216.98,177.77h-0.63
		c-3.71-8.24-7.43-16.47-11.15-24.71h0.98l10.52,23.4l10.52-23.4h0.94c-3.71,8.24-7.42,16.48-11.14,24.71H216.98z M239.22,154.11
		l-7.32,15.33h14.64L239.22,154.11z M227.96,177.59h-0.9c3.94-8.23,7.88-16.47,11.81-24.71h0.74c3.94,8.23,7.88,16.47,11.81,24.71
		h-0.98l-3.49-7.32h-15.47l-3.49,7.32H227.96z M271.99,177.59h-15.82v-24.53h0.9v23.71h14.99v0.83H271.99z M113.12,177.59h-0.83
		v-24.53h17v0.83h-16.11v11.2h14.61v0.83h-14.61v11.68H113.12z M32.84,162.67l0.02-9.58c1.13,0,2.26,0.01,3.4,0.01
		c-0.01,4.95-0.02,9.9-0.03,14.85c0,0.67-0.06,1.31-0.18,1.92c-0.11,0.61-0.29,1.2-0.52,1.76v0c-0.24,0.56-0.53,1.1-0.88,1.61
		c-0.35,0.5-0.75,0.99-1.2,1.44v0.02l-0.02,0.02c-0.5,0.48-1.01,0.89-1.53,1.24c-0.52,0.35-1.06,0.63-1.6,0.85
		c-0.56,0.23-1.15,0.41-1.76,0.52c-0.61,0.11-1.25,0.17-1.91,0.17c-0.67,0-1.32-0.06-1.94-0.18c-0.62-0.12-1.21-0.29-1.77-0.52
		c-0.58-0.24-1.13-0.54-1.64-0.89c-0.52-0.36-1.01-0.77-1.46-1.25c-0.47-0.46-0.88-0.95-1.23-1.47c-0.35-0.51-0.64-1.05-0.88-1.62v0
		c-0.23-0.56-0.4-1.15-0.51-1.76c-0.11-0.61-0.17-1.25-0.17-1.92c0.01-4.95,0.03-9.9,0.03-14.85c1.13,0,2.25,0.01,3.38,0.01
		c-0.01,4.94-0.02,9.89-0.03,14.83c0,0.42,0.04,0.82,0.12,1.21c0.08,0.39,0.19,0.78,0.34,1.16c0.15,0.36,0.33,0.7,0.56,1.04
		c0.22,0.33,0.49,0.65,0.8,0.96c0.3,0.31,0.61,0.57,0.95,0.8c0.34,0.23,0.69,0.42,1.07,0.57l0,0c0.36,0.15,0.74,0.27,1.14,0.35
		c0.39,0.08,0.79,0.12,1.21,0.12c0.4,0,0.8-0.04,1.19-0.11c0.4-0.08,0.78-0.19,1.16-0.35c0.38-0.15,0.73-0.34,1.07-0.56
		c0.34-0.22,0.65-0.48,0.95-0.78l0,0c0.3-0.28,0.56-0.59,0.79-0.92c0.23-0.34,0.43-0.7,0.6-1.09c0.15-0.38,0.27-0.76,0.35-1.15
		c0.08-0.4,0.12-0.8,0.12-1.21L32.84,162.67z"/>
</g>
<g>
</g>
<g>
</g>
<g>
</g>
<g>
</g>
<g>
</g>
<g>
</g>
</svg>
